<?xml version="1.0" encoding="UTF-8"?>
<svg id="Layer_1" xmlns="http://www.w3.org/2000/svg" version="1.1" viewBox="0 0 1376.3 475.7">
  <!-- Generator: Adobe Illustrator 29.4.0, SVG Export Plug-In . SVG Version: 2.1.0 Build 152)  -->
  <defs>
    <style>
      .st0 {
        fill: #c9a32d;
      }

      .st1 {
        fill: #fff;
      }
    </style>
  </defs>
  <g id="_x31_">
    <path class="st0" d="M170.7,217c-3-2.3-7.3-1.6-9.6,1.4-10,13.5-29.1,16.3-42.5,6.3-3-2.3-7.3-1.6-9.6,1.4-2.3,3-1.6,7.3,1.4,9.6,7.9,5.8,17.1,8.7,26.2,8.7,13.5,0,26.9-6.2,35.5-17.8,2.3-3,1.6-7.3-1.4-9.6Z"/>
    <path class="st0" d="M130.9,223.1c.6,0,1.2-.1,1.8-.3,2.7-1,4-4,3-6.6-3.3-8.6,0-17,0-17.2,1-2.6-.2-5.6-2.9-6.7-2.6-1.1-5.6.2-6.7,2.9-.2.5-4.8,12.2,0,24.6.8,2.1,2.7,3.3,4.8,3.3Z"/>
    <path class="st0" d="M146.4,223.1c.6,0,1.2-.1,1.8-.3,2.7-1,4-4,3-6.6-3.3-8.6,0-17,0-17.2,1-2.6-.2-5.6-2.9-6.7-2.6-1.1-5.6.2-6.7,2.9-.2.5-4.8,12.2,0,24.6.8,2.1,2.7,3.3,4.8,3.3Z"/>
  </g>
  <g id="_x32_">
    <path class="st0" d="M250.6,216.7c.6,0,1.2-.1,1.8-.3,2.7-1,4-4,3-6.6-3.3-8.6,0-17,0-17.2,1-2.6-.2-5.6-2.9-6.7-2.6-1.1-5.6.2-6.7,2.9-.2.5-4.8,12.2,0,24.6.8,2.1,2.7,3.3,4.8,3.3Z"/>
    <path class="st0" d="M266.1,216.7c.6,0,1.2-.1,1.8-.3,2.7-1,4-4,3-6.6-3.3-8.6,0-17,0-17.2,1-2.6-.2-5.6-2.9-6.7-2.6-1.1-5.6.2-6.7,2.9-.2.5-4.8,12.2,0,24.6.8,2.1,2.7,3.3,4.8,3.3Z"/>
    <path class="st0" d="M250.8,259.6c-4.3,0-8.5-1.4-12-4.1-4.2-3.2-6.9-7.9-7.6-13.1-1.5-10.8,6.2-20.8,17-22.3l9.7-1.3c10.8-1.5,20.8,6.2,22.3,17,1.5,10.8-6.2,20.8-17,22.3l-9.7,1.3c-.9.1-1.8.2-2.7.2ZM260.6,227.7c-.5,0-1,0-1.5,0l-9.7,1.3c-5.9.8-10.1,6.3-9.3,12.2.4,2.9,1.9,5.4,4.2,7.2,2.3,1.8,5.1,2.5,8,2.1l9.7-1.3c5.9-.8,10.1-6.3,9.3-12.2-.4-2.9-1.9-5.4-4.2-7.2-1.9-1.5-4.2-2.2-6.5-2.2Z"/>
  </g>
  <g id="_x33_">
    <g>
      <path class="st0" d="M345.6,208c.6,0,1.2-.1,1.8-.3,2.7-1,4-4,3-6.6-3.3-8.6,0-17,0-17.2,1-2.6-.2-5.6-2.9-6.7-2.6-1.1-5.6.2-6.7,2.9-.2.5-4.8,12.2,0,24.6.8,2.1,2.7,3.3,4.8,3.3Z"/>
      <path class="st0" d="M361.1,208c.6,0,1.2-.1,1.8-.3,2.7-1,4-4,3-6.6-3.3-8.6,0-17,0-17.2,1-2.6-.2-5.6-2.9-6.7-2.6-1.1-5.6.2-6.7,2.9-.2.5-4.8,12.2,0,24.6.8,2.1,2.7,3.3,4.8,3.3Z"/>
      <path class="st0" d="M345.8,250.9c-4.3,0-8.5-1.4-12-4.1-4.2-3.2-6.9-7.9-7.6-13.1-1.5-10.8,6.2-20.8,17-22.3l9.7-1.3c10.8-1.5,20.8,6.2,22.3,17,1.5,10.8-6.2,20.8-17,22.3l-9.7,1.3c-.9.1-1.8.2-2.7.2ZM355.6,218.9c-.5,0-1,0-1.5,0l-9.7,1.3c-5.9.8-10.1,6.3-9.3,12.2.4,2.9,1.9,5.4,4.2,7.2,2.3,1.8,5.1,2.5,8,2.1l9.7-1.3c5.9-.8,10.1-6.3,9.3-12.2-.4-2.9-1.9-5.4-4.2-7.2-1.9-1.5-4.2-2.2-6.5-2.2Z"/>
    </g>
    <g>
      <path class="st1" d="M355.7,244.6c0-2.4-1-4.6-2.7-6.1.2-.7.3-1.5.3-2.3,0-4.7-3.8-8.4-8.4-8.4s-.4,0-.6,0c-1.5-2.4-4.2-4.1-7.2-4.1s-5.7,1.6-7.2,4.1c-.2,0-.4,0-.6,0-4.7,0-8.4,3.8-8.4,8.4s0,1.4.3,2c-1.8,1.5-3,3.8-3,6.4,0,3.7,2.4,6.9,5.7,8,.4,4.3,4,7.6,8.4,7.6s3.4-.6,4.8-1.5c1.4.9,3,1.5,4.8,1.5,4.4,0,8.1-3.4,8.4-7.8,3.1-1.2,5.4-4.3,5.4-7.9Z"/>
      <path class="st0" d="M354.6,238c.1-.6.2-1.3.2-1.9,0-5.4-4.3-9.8-9.7-9.8-1.8-2.6-4.8-4.1-7.9-4.1s-6.1,1.5-7.9,4.1c-5.4,0-9.7,4.5-9.7,9.8s0,1,.1,1.6c-1.8,1.8-2.8,4.3-2.8,6.9,0,3.9,2.3,7.4,5.9,9,.8,4.6,4.9,8,9.7,8s3.3-.4,4.8-1.3c1.5.8,3.1,1.3,4.8,1.3,4.8,0,8.9-3.5,9.7-8.2,3.4-1.6,5.5-5,5.5-8.8s-.9-4.8-2.5-6.6ZM349.8,251.1c-.5.2-.8.7-.9,1.2-.3,3.6-3.4,6.5-7,6.5s-2.8-.4-4-1.3c-.2-.2-.5-.2-.8-.2s-.6,0-.8.2c-1.2.8-2.6,1.3-4,1.3-3.7,0-6.7-2.7-7-6.4,0-.5-.4-1-.9-1.2-2.9-1-4.8-3.7-4.8-6.7s.9-4,2.5-5.4c.4-.3.6-.9.4-1.4-.1-.6-.2-1.2-.2-1.7,0-3.9,3.2-7.1,7.1-7.1s.3,0,.4,0h0c.5,0,1-.2,1.3-.7,1.3-2.1,3.6-3.4,6-3.4s4.7,1.3,6,3.4c.3.4.8.7,1.3.7h0c.1,0,.3,0,.4,0,3.9,0,7.1,3.2,7.1,7.1s0,1.3-.3,1.9c-.1.5,0,1,.4,1.4,1.4,1.4,2.2,3.2,2.2,5.1,0,2.9-1.8,5.5-4.5,6.6Z"/>
    </g>
  </g>
  <g id="_x34_">
    <g>
      <path class="st0" d="M442.6,211c.6,0,1.2-.1,1.8-.3,2.7-1,4-4,3-6.6-3.3-8.6,0-17,0-17.2,1-2.6-.2-5.6-2.9-6.7-2.6-1.1-5.6.2-6.7,2.9-.2.5-4.8,12.2,0,24.6.8,2.1,2.7,3.3,4.8,3.3Z"/>
      <path class="st0" d="M458.1,211c.6,0,1.2-.1,1.8-.3,2.7-1,4-4,3-6.6-3.3-8.6,0-17,0-17.2,1-2.6-.2-5.6-2.9-6.7-2.6-1.1-5.6.2-6.7,2.9-.2.5-4.8,12.2,0,24.6.8,2.1,2.7,3.3,4.8,3.3Z"/>
      <path class="st0" d="M442.8,253.9c-4.3,0-8.5-1.4-12-4.1-4.2-3.2-6.9-7.9-7.6-13.1-1.5-10.8,6.2-20.8,17-22.3l9.7-1.3c10.8-1.5,20.8,6.2,22.3,17,1.5,10.8-6.2,20.8-17,22.3l-9.7,1.3c-.9.1-1.8.2-2.7.2ZM452.6,222c-.5,0-1,0-1.5,0l-9.7,1.3c-5.9.8-10.1,6.3-9.3,12.2.4,2.9,1.9,5.4,4.2,7.2,2.3,1.8,5.1,2.5,8,2.1l9.7-1.3c5.9-.8,10.1-6.3,9.3-12.2-.4-2.9-1.9-5.4-4.2-7.2-1.9-1.5-4.2-2.2-6.5-2.2Z"/>
    </g>
    <g>
      <path class="st1" d="M453.4,235.5c0-1.1-.5-2.1-1.2-2.8,0-.3.1-.7.1-1.1,0-2.1-1.7-3.9-3.9-3.9s-.2,0-.3,0c-.7-1.1-1.9-1.9-3.3-1.9s-2.6.8-3.3,1.9c0,0-.2,0-.3,0-2.1,0-3.9,1.7-3.9,3.9s0,.6.1.9c-.8.7-1.4,1.8-1.4,2.9,0,1.7,1.1,3.1,2.6,3.7.2,2,1.8,3.5,3.8,3.5s1.6-.3,2.2-.7c.6.4,1.4.7,2.2.7,2,0,3.7-1.6,3.8-3.6,1.4-.6,2.5-2,2.5-3.6Z"/>
      <path class="st0" d="M452.9,232.5c0-.3,0-.6,0-.9,0-2.5-2-4.5-4.4-4.5-.8-1.2-2.2-1.9-3.6-1.9s-2.8.7-3.6,1.9c-2.5,0-4.4,2-4.4,4.5s0,.5,0,.7c-.8.8-1.3,2-1.3,3.2,0,1.8,1.1,3.4,2.7,4.1.4,2.1,2.2,3.7,4.4,3.7s1.5-.2,2.2-.6c.7.4,1.4.6,2.2.6,2.2,0,4.1-1.6,4.4-3.8,1.5-.8,2.5-2.3,2.5-4s-.4-2.2-1.2-3ZM450.7,238.5c-.2,0-.4.3-.4.5-.1,1.7-1.5,3-3.2,3s-1.3-.2-1.8-.6c-.1,0-.2-.1-.4-.1s-.3,0-.4.1c-.5.4-1.2.6-1.8.6-1.7,0-3.1-1.3-3.2-2.9,0-.2-.2-.5-.4-.5-1.3-.4-2.2-1.7-2.2-3.1s.4-1.8,1.1-2.5c.2-.2.3-.4.2-.6,0-.3,0-.5,0-.8,0-1.8,1.4-3.2,3.2-3.2s.1,0,.2,0h0c.2,0,.5,0,.6-.3.6-1,1.6-1.6,2.8-1.6s2.2.6,2.8,1.6c.1.2.3.3.6.3h0c0,0,.1,0,.2,0,1.8,0,3.2,1.4,3.2,3.2s0,.6-.1.9c0,.2,0,.5.2.6.7.6,1,1.5,1,2.4,0,1.3-.8,2.5-2.1,3Z"/>
    </g>
  </g>
  <g id="_x35_">
    <path class="st0" d="M591.1,222.5c-3-2.3-7.3-1.6-9.6,1.4-10,13.5-29.1,16.3-42.5,6.3-3-2.3-7.3-1.6-9.6,1.4-2.3,3-1.6,7.3,1.4,9.6,7.9,5.8,17.1,8.7,26.2,8.7,13.5,0,26.9-6.2,35.5-17.8,2.3-3,1.6-7.3-1.4-9.6Z"/>
    <path class="st0" d="M551.3,228.5c.6,0,1.2-.1,1.8-.3,2.7-1,4-4,3-6.6-3.3-8.6,0-17,0-17.2,1-2.6-.2-5.6-2.9-6.7-2.6-1.1-5.6.2-6.7,2.9-.2.5-4.8,12.2,0,24.6.8,2.1,2.7,3.3,4.8,3.3Z"/>
    <path class="st0" d="M566.9,228.5c.6,0,1.2-.1,1.8-.3,2.7-1,4-4,3-6.6-3.3-8.6,0-17,0-17.2,1-2.6-.2-5.6-2.9-6.7-2.6-1.1-5.6.2-6.7,2.9-.2.5-4.8,12.2,0,24.6.8,2.1,2.7,3.3,4.8,3.3Z"/>
  </g>
  <g id="_x36_">
    <g>
      <path class="st0" d="M749.1,214.6c-3-2.3-7.3-1.6-9.6,1.4-10,13.5-29.1,16.3-42.5,6.3-3-2.3-7.3-1.6-9.6,1.4-2.3,3-1.6,7.3,1.4,9.6,7.9,5.8,17.1,8.7,26.2,8.7,13.5,0,26.9-6.2,35.5-17.8,2.3-3,1.6-7.3-1.4-9.6Z"/>
      <path class="st0" d="M709.4,220.6c.6,0,1.2-.1,1.8-.3,2.7-1,4-4,3-6.6-3.3-8.6,0-17,0-17.2,1-2.6-.2-5.6-2.9-6.7-2.6-1.1-5.6.2-6.7,2.9-.2.5-4.8,12.2,0,24.6.8,2.1,2.7,3.3,4.8,3.3Z"/>
      <path class="st0" d="M724.9,220.6c.6,0,1.2-.1,1.8-.3,2.7-1,4-4,3-6.6-3.3-8.6,0-17,0-17.2,1-2.6-.2-5.6-2.9-6.7-2.6-1.1-5.6.2-6.7,2.9-.2.5-4.8,12.2,0,24.6.8,2.1,2.7,3.3,4.8,3.3Z"/>
    </g>
    <g>
      <path class="st0" d="M765.9,297c-12.3-4.3-22.1-13.2-27.7-25-5.6-11.8-6.3-25-2-37.3,1.3-3.6-.6-7.5-4.2-8.8-3.6-1.3-7.5.6-8.8,4.2-5.6,15.7-4.7,32.7,2.5,47.7,7.2,15.1,19.8,26.4,35.5,32,.8.3,1.5.4,2.3.4,2.8,0,5.5-1.8,6.5-4.6,1.3-3.6-.6-7.5-4.2-8.8Z"/>
      <path class="st0" d="M753.2,255.8c1.2,0,2.5-.4,3.4-1.3,8.4-7.6,19.4-7.7,19.7-7.7h0c2.8,0,5.1-2.3,5.1-5.1,0-2.8-2.2-5.2-5.1-5.2-.7,0-15.2,0-26.7,10.3-2.1,1.9-2.3,5.2-.4,7.3,1,1.1,2.4,1.7,3.8,1.7Z"/>
      <path class="st0" d="M783.1,253.8c-.5,0-15.1,0-26.6,10.3-2.1,1.9-2.3,5.2-.4,7.3,1,1.1,2.4,1.7,3.8,1.7s2.5-.4,3.4-1.3c8.4-7.6,19.5-7.7,19.7-7.7,2.9-.1,5.1-2.2,5.2-5.1,0-2.8-2.2-5.2-5.1-5.2Z"/>
    </g>
  </g>
  <g id="_x37_">
    <g>
      <path class="st0" d="M958.3,200.9c-3-2.3-7.3-1.6-9.6,1.4-10,13.5-29.1,16.3-42.5,6.3-3-2.3-7.3-1.6-9.6,1.4-2.3,3-1.6,7.3,1.4,9.6,7.9,5.8,17.1,8.7,26.2,8.7,13.5,0,26.9-6.2,35.5-17.8,2.3-3,1.6-7.3-1.4-9.6Z"/>
      <path class="st0" d="M918.6,206.9c.6,0,1.2-.1,1.8-.3,2.7-1,4-4,3-6.6-3.3-8.6,0-17,0-17.2,1-2.6-.2-5.6-2.9-6.7-2.6-1.1-5.6.2-6.7,2.9-.2.5-4.8,12.2,0,24.6.8,2.1,2.7,3.3,4.8,3.3Z"/>
      <path class="st0" d="M934.1,206.9c.6,0,1.2-.1,1.8-.3,2.7-1,4-4,3-6.6-3.3-8.6,0-17,0-17.2,1-2.6-.2-5.6-2.9-6.7-2.6-1.1-5.6.2-6.7,2.9-.2.5-4.8,12.2,0,24.6.8,2.1,2.7,3.3,4.8,3.3Z"/>
    </g>
    <g>
      <path class="st0" d="M975.1,283.3c-12.3-4.3-22.1-13.2-27.7-25-5.6-11.8-6.3-25-2-37.3,1.3-3.6-.6-7.5-4.2-8.8-3.6-1.3-7.5.6-8.8,4.2-5.6,15.7-4.7,32.7,2.5,47.7,7.2,15.1,19.8,26.4,35.5,32,.8.3,1.5.4,2.3.4,2.8,0,5.5-1.8,6.5-4.6,1.3-3.6-.6-7.5-4.2-8.8Z"/>
      <path class="st0" d="M962.4,242.1c1.2,0,2.5-.4,3.4-1.3,8.4-7.6,19.4-7.7,19.7-7.7h0c2.8,0,5.1-2.3,5.1-5.1,0-2.8-2.2-5.2-5.1-5.2-.7,0-15.2,0-26.7,10.3-2.1,1.9-2.3,5.2-.4,7.3,1,1.1,2.4,1.7,3.8,1.7Z"/>
      <path class="st0" d="M992.3,240.1c-.5,0-15.1,0-26.6,10.3-2.1,1.9-2.3,5.2-.4,7.3,1,1.1,2.4,1.7,3.8,1.7s2.5-.4,3.4-1.3c8.4-7.6,19.5-7.7,19.7-7.7,2.9-.1,5.1-2.2,5.2-5.1,0-2.8-2.2-5.2-5.1-5.2Z"/>
    </g>
    <g>
      <path class="st0" d="M892,229.2c-3.8-.5-7.2,2.1-7.7,5.9-.5,3.8,2.1,7.2,5.9,7.7,30.9,4.2,52.6,32.7,48.5,63.6-.5,3.8,2.1,7.2,5.9,7.7.3,0,.6,0,.9,0,3.4,0,6.3-2.5,6.8-5.9,5.2-38.4-21.8-73.8-60.2-79Z"/>
      <path class="st0" d="M912,280.9c-13.4,12.1-30.9,12.1-31.1,12.1h0c-2.8,0-5.1,2.3-5.1,5.1,0,2.8,2.2,5.2,5.1,5.2h.1c2,0,22-.4,37.9-14.7,2.1-1.9,2.3-5.2.4-7.3-1.9-2.1-5.2-2.3-7.3-.4Z"/>
      <path class="st0" d="M909.3,255.5c-1.9-2.1-5.1-2.3-7.3-.4-13.4,12.1-30.8,12-31.1,12.1h0c-2.8,0-5.1,2.3-5.1,5.1,0,2.8,2.2,5.2,5.1,5.2h.1c2,0,22-.4,37.9-14.7,2.1-1.9,2.3-5.2.4-7.3Z"/>
    </g>
  </g>
  <g id="_x38_">
    <path class="st1" d="M1263.5,249.7c0-12-5.1-22.8-13.2-30.5,1-3.6,1.6-7.5,1.6-11.4,0-23.1-18.8-41.9-41.9-41.9s-2,0-2.9.1c-7.3-12.1-20.6-20.3-35.8-20.3s-28.5,8.1-35.8,20.3c-1,0-1.9-.1-2.9-.1-23.1,0-41.9,18.8-41.9,41.9s.5,6.9,1.3,10.1c-9,7.7-14.6,19.1-14.6,31.8,0,18.4,11.9,34.1,28.5,39.7,2,21.3,19.9,37.9,41.7,37.9s17.1-2.8,23.9-7.5c6.8,4.7,15,7.5,23.9,7.5,22,0,40-17,41.7-38.6,15.6-6.1,26.7-21.2,26.7-39Z"/>
    <path class="st0" d="M1257.9,217.2c.6-3.1.9-6.2.9-9.3,0-26.7-21.5-48.4-48.1-48.8-9.2-12.7-23.6-20.1-39.4-20.1s-30.2,7.4-39.4,20.1c-26.6.4-48.1,22.1-48.1,48.8s.2,5.1.6,7.7c-9,9.1-14,21.3-14,34.2,0,19.4,11.5,36.8,29.1,44.6,4.2,23,24.1,39.9,47.9,39.9s16.6-2.1,23.9-6.3c7.3,4.1,15.4,6.3,23.9,6.3,23.8,0,44.2-17.6,48.1-40.7,16.7-8.2,27.2-24.9,27.2-43.7s-4.4-23.6-12.5-32.6ZM1234.4,282.4c-2.4,1-4.1,3.2-4.3,5.8-1.4,18.1-16.8,32.3-34.9,32.3s-14.1-2.2-20-6.3c-1.2-.8-2.5-1.2-3.9-1.2s-2.7.4-3.9,1.2c-5.9,4.1-12.8,6.3-20,6.3-18.2,0-33.2-13.6-34.9-31.7-.3-2.7-2.1-5-4.6-5.9-14.2-4.8-23.8-18.2-23.8-33.2s4.5-19.9,12.3-26.6c2-1.7,2.8-4.3,2.2-6.9-.7-2.9-1.1-5.7-1.1-8.5,0-19.3,15.7-35,35-35s1.3,0,2,.1h.4c2.6.2,5-1.1,6.3-3.3,6.4-10.6,17.6-17,30-17s23.5,6.3,30,17c1.3,2.2,3.8,3.5,6.3,3.3h.4c.7,0,1.3-.1,2-.1,19.3,0,35,15.7,35,35s-.5,6.4-1.4,9.5c-.7,2.5,0,5.1,1.9,6.9,7.1,6.7,11.1,15.8,11.1,25.5,0,14.5-8.8,27.3-22.3,32.6Z"/>
    <g>
      <path class="st0" d="M1201.2,188.9c-3-2.3-7.3-1.6-9.6,1.4-10,13.5-29.1,16.3-42.5,6.3-3-2.3-7.3-1.6-9.6,1.4-2.3,3-1.6,7.3,1.4,9.6,7.9,5.8,17.1,8.7,26.2,8.7,13.5,0,26.9-6.2,35.5-17.8,2.3-3,1.6-7.3-1.4-9.6Z"/>
      <path class="st0" d="M1161.5,195c.6,0,1.2-.1,1.8-.3,2.7-1,4-4,3-6.6-3.3-8.6,0-17,0-17.2,1-2.6-.2-5.6-2.9-6.7-2.6-1.1-5.6.2-6.7,2.9-.2.5-4.8,12.2,0,24.6.8,2.1,2.7,3.3,4.8,3.3Z"/>
      <path class="st0" d="M1177,195c.6,0,1.2-.1,1.8-.3,2.7-1,4-4,3-6.6-3.3-8.6,0-17,0-17.2,1-2.6-.2-5.6-2.9-6.7-2.6-1.1-5.6.2-6.7,2.9-.2.5-4.8,12.2,0,24.6.8,2.1,2.7,3.3,4.8,3.3Z"/>
    </g>
    <g>
      <path class="st0" d="M1218,271.4c-12.3-4.3-22.1-13.2-27.7-25-5.6-11.8-6.3-25-2-37.3,1.3-3.6-.6-7.5-4.2-8.8-3.6-1.3-7.5.6-8.8,4.2-5.6,15.7-4.7,32.7,2.5,47.7,7.2,15.1,19.8,26.4,35.5,32,.8.3,1.5.4,2.3.4,2.8,0,5.5-1.8,6.5-4.6,1.3-3.6-.6-7.5-4.2-8.8Z"/>
      <path class="st0" d="M1205.3,230.2c1.2,0,2.5-.4,3.4-1.3,8.4-7.6,19.4-7.7,19.7-7.7h0c2.8,0,5.1-2.3,5.1-5.1,0-2.8-2.2-5.2-5.1-5.2-.7,0-15.2,0-26.7,10.3-2.1,1.9-2.3,5.2-.4,7.3,1,1.1,2.4,1.7,3.8,1.7Z"/>
      <path class="st0" d="M1235.2,228.1c-.5,0-15.1,0-26.6,10.3-2.1,1.9-2.3,5.2-.4,7.3,1,1.1,2.4,1.7,3.8,1.7s2.5-.4,3.4-1.3c8.4-7.6,19.5-7.7,19.7-7.7,2.9-.1,5.1-2.2,5.2-5.1,0-2.8-2.2-5.2-5.1-5.2Z"/>
    </g>
    <g>
      <path class="st0" d="M1134.9,217.3c-3.8-.5-7.2,2.1-7.7,5.9-.5,3.8,2.1,7.2,5.9,7.7,30.9,4.2,52.6,32.7,48.5,63.6-.5,3.8,2.1,7.2,5.9,7.7.3,0,.6,0,.9,0,3.4,0,6.3-2.5,6.8-5.9,5.2-38.4-21.8-73.8-60.2-79Z"/>
      <path class="st0" d="M1154.9,268.9c-13.4,12.1-30.9,12.1-31.1,12.1h0c-2.8,0-5.1,2.3-5.1,5.1,0,2.8,2.2,5.2,5.1,5.2h.1c2,0,22-.4,37.9-14.7,2.1-1.9,2.3-5.2.4-7.3-1.9-2.1-5.2-2.3-7.3-.4Z"/>
      <path class="st0" d="M1152.2,243.5c-1.9-2.1-5.1-2.3-7.3-.4-13.4,12.1-30.8,12-31.1,12.1h0c-2.8,0-5.1,2.3-5.1,5.1,0,2.8,2.2,5.2,5.1,5.2h.1c2,0,22-.4,37.9-14.7,2.1-1.9,2.3-5.2.4-7.3Z"/>
    </g>
  </g>
</svg>